<svg width="250" height="88" viewBox="0 0 250 88" fill="none" xmlns="http://www.w3.org/2000/svg">
<g id="Group 1">
<rect id="Rectangle 1" width="10" height="10" rx="2" fill="#DDDBDB"/>
<rect id="Rectangle 57" x="96" width="10" height="10" rx="2" fill="#DDDBDB"/>
<rect id="Rectangle 15" x="24" width="10" height="10" rx="2" fill="#DDDBDB"/>
<rect id="Rectangle 58" x="120" width="10" height="10" rx="2" fill="#39D353"/>
<rect id="Rectangle 29" x="48" width="10" height="10" rx="2" fill="#DDDBDB"/>
<rect id="Rectangle 59" x="144" width="10" height="10" rx="2" fill="#DDDBDB"/>
<rect id="Rectangle 113" x="204" width="10" height="10" rx="2" fill="#DDDBDB"/>
<rect id="Rectangle 43" x="72" width="10" height="10" rx="2" fill="#DDDBDB"/>
<rect id="Rectangle 60" x="168" width="10" height="10" rx="2" fill="#DDDBDB"/>
<rect id="Rectangle 114" x="228" width="10" height="10" rx="2" fill="#DDDBDB"/>
<rect id="Rectangle 5" y="26" width="10" height="10" rx="2" fill="#DDDBDB"/>
<rect id="Rectangle 61" x="96" y="26" width="10" height="10" rx="2" fill="#26A641"/>
<rect id="Rectangle 16" x="24" y="26" width="10" height="10" rx="2" fill="#26A641"/>
<rect id="Rectangle 62" x="120" y="26" width="10" height="10" rx="2" fill="#26A641"/>
<rect id="Rectangle 30" x="48" y="26" width="10" height="10" rx="2" fill="#DDDBDB"/>
<rect id="Rectangle 63" x="144" y="26" width="10" height="10" rx="2" fill="#006D32"/>
<rect id="Rectangle 115" x="204" y="26" width="10" height="10" rx="2" fill="#006D32"/>
<rect id="Rectangle 44" x="72" y="26" width="10" height="10" rx="2" fill="#DDDBDB"/>
<rect id="Rectangle 64" x="168" y="26" width="10" height="10" rx="2" fill="#DDDBDB"/>
<rect id="Rectangle 116" x="228" y="26" width="10" height="10" rx="2" fill="#39D353"/>
<rect id="Rectangle 9" y="52" width="10" height="10" rx="2" fill="#DDDBDB"/>
<rect id="Rectangle 65" x="96" y="52" width="10" height="10" rx="2" fill="#39D353"/>
<rect id="Rectangle 17" x="24" y="52" width="10" height="10" rx="2" fill="#26A641"/>
<rect id="Rectangle 66" x="120" y="52" width="10" height="10" rx="2" fill="#26A641"/>
<rect id="Rectangle 31" x="48" y="52" width="10" height="10" rx="2" fill="#DDDBDB"/>
<rect id="Rectangle 67" x="144" y="52" width="10" height="10" rx="2" fill="#26A641"/>
<rect id="Rectangle 117" x="204" y="52" width="10" height="10" rx="2" fill="#DDDBDB"/>
<rect id="Rectangle 45" x="72" y="52" width="10" height="10" rx="2" fill="#DDDBDB"/>
<rect id="Rectangle 68" x="168" y="52" width="10" height="10" rx="2" fill="#39D353"/>
<rect id="Rectangle 118" x="228" y="52" width="10" height="10" rx="2" fill="#DDDBDB"/>
<rect id="Rectangle 2" x="12" width="10" height="10" rx="2" fill="#DDDBDB"/>
<rect id="Rectangle 69" x="108" width="10" height="10" rx="2" fill="#DDDBDB"/>
<rect id="Rectangle 18" x="36" width="10" height="10" rx="2" fill="#DDDBDB"/>
<rect id="Rectangle 70" x="132" width="10" height="10" rx="2" fill="#DDDBDB"/>
<rect id="Rectangle 119" x="192" width="10" height="10" rx="2" fill="#DDDBDB"/>
<rect id="Rectangle 32" x="60" width="10" height="10" rx="2" fill="#DDDBDB"/>
<rect id="Rectangle 71" x="156" width="10" height="10" rx="2" fill="#DDDBDB"/>
<rect id="Rectangle 120" x="216" width="10" height="10" rx="2" fill="#DDDBDB"/>
<rect id="Rectangle 46" x="84" width="10" height="10" rx="2" fill="#DDDBDB"/>
<rect id="Rectangle 72" x="180" width="10" height="10" rx="2" fill="#DDDBDB"/>
<rect id="Rectangle 121" x="240" width="10" height="10" rx="2" fill="#DDDBDB"/>
<rect id="Rectangle 6" x="12" y="26" width="10" height="10" rx="2" fill="#39D353"/>
<rect id="Rectangle 73" x="108" y="26" width="10" height="10" rx="2" fill="#DDDBDB"/>
<rect id="Rectangle 19" x="36" y="26" width="10" height="10" rx="2" fill="#DDDBDB"/>
<rect id="Rectangle 74" x="132" y="26" width="10" height="10" rx="2" fill="#DDDBDB"/>
<rect id="Rectangle 122" x="192" y="26" width="10" height="10" rx="2" fill="#DDDBDB"/>
<rect id="Rectangle 33" x="60" y="26" width="10" height="10" rx="2" fill="#39D353"/>
<rect id="Rectangle 75" x="156" y="26" width="10" height="10" rx="2" fill="#DDDBDB"/>
<rect id="Rectangle 123" x="216" y="26" width="10" height="10" rx="2" fill="#DDDBDB"/>
<rect id="Rectangle 47" x="84" y="26" width="10" height="10" rx="2" fill="#DDDBDB"/>
<rect id="Rectangle 76" x="180" y="26" width="10" height="10" rx="2" fill="#DDDBDB"/>
<rect id="Rectangle 124" x="240" y="26" width="10" height="10" rx="2" fill="#DDDBDB"/>
<rect id="Rectangle 10" x="12" y="52" width="10" height="10" rx="2" fill="#DDDBDB"/>
<g id="Rectangle 77">
<rect x="108" y="52" width="10" height="10" rx="2" fill="#DDDBDB"/>
<rect x="108" y="52" width="10" height="10" rx="2" fill="#DDDBDB"/>
</g>
<rect id="Rectangle 20" x="36" y="52" width="10" height="10" rx="2" fill="#DDDBDB"/>
<rect id="Rectangle 78" x="132" y="52" width="10" height="10" rx="2" fill="#26A641"/>
<rect id="Rectangle 125" x="192" y="52" width="10" height="10" rx="2" fill="#DDDBDB"/>
<rect id="Rectangle 34" x="60" y="52" width="10" height="10" rx="2" fill="#39D353"/>
<rect id="Rectangle 79" x="156" y="52" width="10" height="10" rx="2" fill="#26A641"/>
<rect id="Rectangle 126" x="216" y="52" width="10" height="10" rx="2" fill="#006D32"/>
<rect id="Rectangle 48" x="84" y="52" width="10" height="10" rx="2" fill="#DDDBDB"/>
<rect id="Rectangle 80" x="180" y="52" width="10" height="10" rx="2" fill="#DDDBDB"/>
<rect id="Rectangle 127" x="240" y="52" width="10" height="10" rx="2" fill="#DDDBDB"/>
<rect id="Rectangle 3" y="13" width="10" height="10" rx="2" fill="#DDDBDB"/>
<rect id="Rectangle 81" x="96" y="13" width="10" height="10" rx="2" fill="#DDDBDB"/>
<rect id="Rectangle 21" x="24" y="13" width="10" height="10" rx="2" fill="#26A641"/>
<rect id="Rectangle 82" x="120" y="13" width="10" height="10" rx="2" fill="#26A641"/>
<rect id="Rectangle 35" x="48" y="13" width="10" height="10" rx="2" fill="#DDDBDB"/>
<rect id="Rectangle 83" x="144" y="13" width="10" height="10" rx="2" fill="#DDDBDB"/>
<rect id="Rectangle 128" x="204" y="13" width="10" height="10" rx="2" fill="#DDDBDB"/>
<rect id="Rectangle 49" x="72" y="13" width="10" height="10" rx="2" fill="#006D32"/>
<rect id="Rectangle 84" x="168" y="13" width="10" height="10" rx="2" fill="#DDDBDB"/>
<rect id="Rectangle 129" x="228" y="13" width="10" height="10" rx="2" fill="#DDDBDB"/>
<rect id="Rectangle 7" y="39" width="10" height="10" rx="2" fill="#DDDBDB"/>
<rect id="Rectangle 85" x="96" y="39" width="10" height="10" rx="2" fill="#39D353"/>
<rect id="Rectangle 22" x="24" y="39" width="10" height="10" rx="2" fill="#26A641"/>
<rect id="Rectangle 86" x="120" y="39" width="10" height="10" rx="2" fill="#26A641"/>
<rect id="Rectangle 36" x="48" y="39" width="10" height="10" rx="2" fill="#DDDBDB"/>
<rect id="Rectangle 87" x="144" y="39" width="10" height="10" rx="2" fill="#DDDBDB"/>
<rect id="Rectangle 130" x="204" y="39" width="10" height="10" rx="2" fill="#DDDBDB"/>
<rect id="Rectangle 50" x="72" y="39" width="10" height="10" rx="2" fill="#DDDBDB"/>
<rect id="Rectangle 88" x="168" y="39" width="10" height="10" rx="2" fill="#DDDBDB"/>
<rect id="Rectangle 131" x="228" y="39" width="10" height="10" rx="2" fill="#DDDBDB"/>
<rect id="Rectangle 11" y="65" width="10" height="10" rx="2" fill="#DDDBDB"/>
<rect id="Rectangle 89" x="96" y="65" width="10" height="10" rx="2" fill="#DDDBDB"/>
<rect id="Rectangle 23" x="24" y="65" width="10" height="10" rx="2" fill="#26A641"/>
<rect id="Rectangle 90" x="120" y="65" width="10" height="10" rx="2" fill="#26A641"/>
<rect id="Rectangle 37" x="48" y="65" width="10" height="10" rx="2" fill="#DDDBDB"/>
<rect id="Rectangle 91" x="144" y="65" width="10" height="10" rx="2" fill="#DDDBDB"/>
<rect id="Rectangle 132" x="204" y="65" width="10" height="10" rx="2" fill="#DDDBDB"/>
<rect id="Rectangle 51" x="72" y="65" width="10" height="10" rx="2" fill="#26A641"/>
<rect id="Rectangle 92" x="168" y="65" width="10" height="10" rx="2" fill="#DDDBDB"/>
<rect id="Rectangle 133" x="228" y="65" width="10" height="10" rx="2" fill="#DDDBDB"/>
<rect id="Rectangle 13" y="78" width="10" height="10" rx="2" fill="#DDDBDB"/>
<rect id="Rectangle 93" x="96" y="78" width="10" height="10" rx="2" fill="#DDDBDB"/>
<rect id="Rectangle 24" x="24" y="78" width="10" height="10" rx="2" fill="#26A641"/>
<rect id="Rectangle 94" x="120" y="78" width="10" height="10" rx="2" fill="#DDDBDB"/>
<rect id="Rectangle 38" x="48" y="78" width="10" height="10" rx="2" fill="#DDDBDB"/>
<rect id="Rectangle 95" x="144" y="78" width="10" height="10" rx="2" fill="#DDDBDB"/>
<rect id="Rectangle 134" x="204" y="78" width="10" height="10" rx="2" fill="#DDDBDB"/>
<rect id="Rectangle 52" x="72" y="78" width="10" height="10" rx="2" fill="#DDDBDB"/>
<rect id="Rectangle 96" x="168" y="78" width="10" height="10" rx="2" fill="#DDDBDB"/>
<rect id="Rectangle 135" x="228" y="78" width="10" height="10" rx="2" fill="#DDDBDB"/>
<rect id="Rectangle 4" x="12" y="13" width="10" height="10" rx="2" fill="#DDDBDB"/>
<rect id="Rectangle 97" x="108" y="13" width="10" height="10" rx="2" fill="#DDDBDB"/>
<rect id="Rectangle 25" x="36" y="13" width="10" height="10" rx="2" fill="#DDDBDB"/>
<rect id="Rectangle 98" x="132" y="13" width="10" height="10" rx="2" fill="#26A641"/>
<rect id="Rectangle 136" x="192" y="13" width="10" height="10" rx="2" fill="#006D32"/>
<rect id="Rectangle 39" x="60" y="13" width="10" height="10" rx="2" fill="#26A641"/>
<rect id="Rectangle 99" x="156" y="13" width="10" height="10" rx="2" fill="#DDDBDB"/>
<rect id="Rectangle 137" x="216" y="13" width="10" height="10" rx="2" fill="#DDDBDB"/>
<rect id="Rectangle 53" x="84" y="13" width="10" height="10" rx="2" fill="#006D32"/>
<rect id="Rectangle 100" x="180" y="13" width="10" height="10" rx="2" fill="#DDDBDB"/>
<rect id="Rectangle 138" x="240" y="13" width="10" height="10" rx="2" fill="#26A641"/>
<rect id="Rectangle 8" x="12" y="39" width="10" height="10" rx="2" fill="#DDDBDB"/>
<g id="Rectangle 101">
<rect x="108" y="39" width="10" height="10" rx="2" fill="#DDDBDB"/>
<rect x="108" y="39" width="10" height="10" rx="2" fill="#DDDBDB"/>
</g>
<rect id="Rectangle 26" x="36" y="39" width="10" height="10" rx="2" fill="#DDDBDB"/>
<rect id="Rectangle 102" x="132" y="39" width="10" height="10" rx="2" fill="#DDDBDB"/>
<rect id="Rectangle 139" x="192" y="39" width="10" height="10" rx="2" fill="#DDDBDB"/>
<rect id="Rectangle 40" x="60" y="39" width="10" height="10" rx="2" fill="#39D353"/>
<rect id="Rectangle 103" x="156" y="39" width="10" height="10" rx="2" fill="#096235"/>
<rect id="Rectangle 140" x="216" y="39" width="10" height="10" rx="2" fill="#39D353"/>
<rect id="Rectangle 54" x="84" y="39" width="10" height="10" rx="2" fill="#DDDBDB"/>
<rect id="Rectangle 104" x="180" y="39" width="10" height="10" rx="2" fill="#DDDBDB"/>
<rect id="Rectangle 141" x="240" y="39" width="10" height="10" rx="2" fill="#DDDBDB"/>
<rect id="Rectangle 12" x="12" y="65" width="10" height="10" rx="2" fill="#DDDBDB"/>
<rect id="Rectangle 105" x="108" y="65" width="10" height="10" rx="2" fill="#DDDBDB"/>
<rect id="Rectangle 27" x="36" y="65" width="10" height="10" rx="2" fill="#DDDBDB"/>
<rect id="Rectangle 106" x="132" y="65" width="10" height="10" rx="2" fill="#DDDBDB"/>
<rect id="Rectangle 142" x="192" y="65" width="10" height="10" rx="2" fill="#DDDBDB"/>
<rect id="Rectangle 41" x="60" y="65" width="10" height="10" rx="2" fill="#26A641"/>
<rect id="Rectangle 107" x="156" y="65" width="10" height="10" rx="2" fill="#DDDBDB"/>
<rect id="Rectangle 143" x="216" y="65" width="10" height="10" rx="2" fill="#006D32"/>
<rect id="Rectangle 55" x="84" y="65" width="10" height="10" rx="2" fill="#26A641"/>
<rect id="Rectangle 108" x="180" y="65" width="10" height="10" rx="2" fill="#39D353"/>
<rect id="Rectangle 144" x="240" y="65" width="10" height="10" rx="2" fill="#DDDBDB"/>
<rect id="Rectangle 14" x="12" y="78" width="10" height="10" rx="2" fill="#006D32"/>
<rect id="Rectangle 109" x="108" y="78" width="10" height="10" rx="2" fill="#DDDBDB"/>
<rect id="Rectangle 28" x="36" y="78" width="10" height="10" rx="2" fill="#006D32"/>
<rect id="Rectangle 110" x="132" y="78" width="10" height="10" rx="2" fill="#DDDBDB"/>
<rect id="Rectangle 145" x="192" y="78" width="10" height="10" rx="2" fill="#DDDBDB"/>
<rect id="Rectangle 42" x="60" y="78" width="10" height="10" rx="2" fill="#DDDBDB"/>
<rect id="Rectangle 111" x="156" y="78" width="10" height="10" rx="2" fill="#DDDBDB"/>
<rect id="Rectangle 146" x="216" y="78" width="10" height="10" rx="2" fill="#39D353"/>
<rect id="Rectangle 56" x="84" y="78" width="10" height="10" rx="2" fill="#DDDBDB"/>
<rect id="Rectangle 112" x="180" y="78" width="10" height="10" rx="2" fill="#DDDBDB"/>
<rect id="Rectangle 147" x="240" y="78" width="10" height="10" rx="2" fill="#DDDBDB"/>
</g>
</svg>
